<?xml version="1.0" encoding="utf-8"?>
<!-- Generator: Adobe Illustrator 26.0.2, SVG Export Plug-In . SVG Version: 6.00 Build 0)  -->
<svg version="1.1" id="Layer_1" xmlns="http://www.w3.org/2000/svg" xmlns:xlink="http://www.w3.org/1999/xlink" x="0px" y="0px"
	 viewBox="0 0 1368 335.7" style="enable-background:new 0 0 1368 335.7;" xml:space="preserve">
<g id="Layer_2_00000116928759450880089620000002247936219591410605_">
	<g id="Layer_1-2">
		<path d="M671.6,222.9c-5.3-2.8-11.3-4.2-17.3-4.1c-5.5,0-11,1-16.1,2.8c-3.8,1.3-7.5,3.1-10.9,5.2v-37.5c0-3.8,0.3-7.6,0.8-11.4
			c0.6-3.6,1.5-7.1,2.9-10.5l-1.3-0.7l-23.2,26.1v1.1c1.3,1.9,2.2,4.1,2.8,6.3c0.6,2.8,1,5.6,1,8.4v85.3c0.1,2.9-0.1,5.8-0.5,8.7
			c-0.3,2.1-0.9,4.2-1.7,6.2h21c-0.7-1.9-1.2-3.9-1.5-5.9c-0.3-2.7-0.4-5.3-0.4-8v-57.8c1.8-2.6,4-4.9,6.6-6.8
			c4.2-3,9.2-4.7,14.3-4.7c7,0,12.4,3,16.2,9.1c3.8,6,5.7,14.2,5.7,24.3c-0.1,11.7-2.4,23.2-6.7,34c-4.5,11.4-10.4,20.9-17.8,28.4
			l1.6,1.2c8-5.7,15.1-12.6,21.1-20.4c5.9-7.5,10.8-15.8,14.5-24.6c3.3-7.6,5.1-15.8,5.3-24.1c0-7.2-1.5-13.5-4.4-18.8
			C681,229.7,676.8,225.6,671.6,222.9z"/>
		<path d="M589,219.5c-2.3,0.4-4.7,0.6-7.1,0.5h-4.5v-13.7c0-3.9,0.3-7.7,0.9-11.6c0.6-3.6,1.5-7.1,2.7-10.5l-1.1-0.7l-23.5,26.1
			v1.1c1.4,1.9,2.4,4,3,6.3c0.3,1.2,0.5,2.3,0.6,3.5l-6.7,4.1l0.4,1.6h6.7v67.7c0.1,2.9-0.1,5.8-0.5,8.7c-0.4,2.1-0.9,4.2-1.6,6.2
			h21c-0.7-1.9-1.2-3.9-1.5-5.9c-0.3-2.7-0.4-5.3-0.4-8v-68.8H591l3.3-8.7l-1.8-0.5C591.7,218.2,590.4,219.1,589,219.5z"/>
		<path d="M63.4,223.5c-6.7-3.7-14.2-5.5-21.8-5.4c-7.6-0.2-15.2,1.7-21.8,5.5c-6.3,3.8-11.4,9.3-14.6,16C1.7,246.6,0,254.9,0,264.5
			c0,9.9,1.8,18.4,5.3,25.3c3.2,6.6,8.3,12.1,14.7,15.8c6.6,3.6,14,5.5,21.5,5.4c7.6,0.2,15.1-1.7,21.7-5.5
			c6.4-3.8,11.5-9.3,14.7-16c3.5-7,5.3-15.4,5.3-25.1c0-9.8-1.7-18.1-5.2-25.1C74.8,232.7,69.7,227.2,63.4,223.5z M64.6,282.9
			c-1.8,4.7-5,8.8-9.2,11.7c-4.1,2.7-9,4.1-13.9,4c-4.8,0.1-9.5-1.3-13.6-3.9c-4.1-2.9-7.4-6.9-9.2-11.5c-2.2-5.1-3.4-11.3-3.4-18.6
			s1.1-13.5,3.4-18.6c1.9-4.7,5.1-8.7,9.3-11.5c4-2.6,8.7-4,13.4-3.9c4.9-0.1,9.6,1.3,13.7,3.9c4.2,2.8,7.4,6.8,9.3,11.5
			c2.2,5.1,3.3,11.2,3.3,18.5C68,270.7,66.9,277,64.6,282.9z"/>
		<path d="M109,190.4c-3.8,4.1-5.8,10.5-5.8,19.3v10.5H89.8v11.6h13.4v77.1h15v-77.1h17.1v-11.6h-17.1v-9.4
			c-0.1-2.5,0.2-5.1,0.7-7.5c0.5-1.8,1.6-3.4,3.2-4.4c1.7-1.1,4.2-1.6,7.6-1.6c3.9,0,7.9,0.7,11.6,1.8l3.3-12.8
			c-5.5-1.4-11.2-2.1-16.9-2.1C119.1,184.2,112.8,186.2,109,190.4z"/>
		<path d="M1183,226.3c0.3-2.1,0.8-4.3,1.6-6.3h-31.4v2.1h3.4c3,0,5.3,1,6.7,3s2.2,5.3,2.2,9.8v55.9c-2,2.9-4.7,5.3-7.8,7
			c-4.6,2.6-9.9,3.9-15.2,3.6c-6-0.4-10.8-2.6-14.3-6.7s-5.3-9.8-5.3-17.1v-42.6c-0.1-2.9,0.1-5.8,0.5-8.7c0.3-2.1,0.9-4.2,1.7-6.2
			h-29.7v2.1h2.9c2.3-0.2,4.6,1,5.8,2.9c1.2,2,1.8,5,1.8,9.1v45.9c0,9.5,2.7,17,8.1,22.6c5.4,5.6,12.4,8.5,20.9,8.7
			c11.8,0.1,23-5.1,30.7-14.1c0,1.7,0.1,3.5,0.2,5.1c0.1,2.2,0.4,4.3,0.8,6.5h17.8c-0.7-1.9-1.2-3.9-1.4-5.9c-0.3-2.7-0.4-5.3-0.4-8
			v-60.1C1182.5,232,1182.7,229.2,1183,226.3z"/>
		<path d="M1027.2,226.3c0.3-2.1,0.8-4.3,1.5-6.3h-31.4v2.1h3.4c3,0,5.3,1,6.7,3s2.2,5.3,2.2,9.8v55.9c-2.1,2.9-4.7,5.3-7.8,7
			c-4.6,2.6-9.9,3.9-15.2,3.6c-6-0.4-10.8-2.6-14.3-6.7c-3.5-4.1-5.3-9.8-5.2-17.1v-42.6c0-2.9,0.1-5.8,0.5-8.7
			c0.3-2.1,0.9-4.2,1.7-6.2h-29.7v2.1h2.9c2.3-0.2,4.6,1,5.8,2.9c1.2,2,1.8,5,1.8,9.1v45.9c0,9.5,2.7,17,8.1,22.6
			c5.4,5.6,12.4,8.5,20.9,8.7c11.8,0.1,23-5.1,30.7-14.1c0,1.7,0.1,3.5,0.2,5.1c0.1,2.2,0.4,4.3,0.8,6.5h17.8
			c-0.7-1.9-1.2-3.9-1.4-5.9c-0.3-2.7-0.4-5.3-0.4-8v-60.1C1026.7,232,1026.9,229.2,1027.2,226.3z"/>
		<path d="M771,295c-5.2,2.8-11.1,4.3-17,4.3c-13.1,0.1-25-7.3-30.6-19.1c-3.3-6.3-4.9-14-4.9-23c0-0.4,0-0.7,0-1.1H778l1.6-3.4
			c-0.2-7.3-1.8-13.5-4.8-18.5c-2.8-4.8-7-8.8-12-11.3c-5.1-2.6-10.8-3.9-16.6-3.8c-8.2-0.2-16.3,1.9-23.5,6
			c-6.7,3.9-12.2,9.7-15.8,16.6c-3.8,7.4-5.7,15.6-5.5,23.9c0,9.5,2,17.7,6,24.5c3.7,6.6,9.1,12,15.7,15.6
			c6.5,3.6,13.7,5.4,21.1,5.3c8.6,0.1,17-2.4,24.2-7.2c7.3-4.9,12.7-12,15.5-20.3l-1.5-0.7C780.1,288.1,776,292.3,771,295z
			 M729.2,229.2c3.5-2.9,8-4.4,12.6-4.4c3.6,0,7.1,1,10.2,3c3.3,2.2,5.9,5.2,7.6,8.8c2,4.2,3,8.9,2.9,13.6h-43.6
			c0.4-3.2,1.2-6.2,2.3-9.2C722.7,236.4,725.5,232.3,729.2,229.2L729.2,229.2z"/>
		<path d="M1264.8,217.9c-5.3,0-11.8,2-19.5,6c-5.3,2.8-10.4,6.1-15.1,9.8V220H1199v2.1h3.8c3.6,0,6.2,1.1,7.9,3.2s2.4,5.6,2.4,10.3
			v55.4c0.1,3.5-0.1,6.9-0.5,10.4c-0.4,2.5-1,5-1.8,7.4h21.6c-0.8-2.2-1.4-4.5-1.7-6.8c-0.4-3.2-0.5-6.3-0.5-9.5v-52.3
			c2.3-1.7,4.8-3.2,7.3-4.5c4.9-2.4,9.3-3.6,13.2-3.6c2.7-0.1,5.4,0.8,7.5,2.6c1.9,1.7,2.8,4.4,2.8,7.9c-0.1,3.9-0.9,7.8-2.4,11.5
			c-1.8,4.4-4,8.6-6.8,12.5l1.4,1.1c6.3-6,11.6-12.8,16-20.3c4.2-7.2,6.3-13.4,6.2-18.5c0-3.8-1-6.6-2.9-8.4
			C1270.4,218.7,1267.6,217.7,1264.8,217.9z"/>
		<path d="M1366.6,282.9c-2.5,5.2-6.5,9.4-11.6,12.1c-5.2,2.8-11.1,4.3-17,4.3c-13,0.1-25-7.3-30.6-19.1c-3.3-6.3-4.9-14-4.9-23
			c0-0.4,0-0.7,0-1.1h59.5l1.6-3.4c-0.2-7.3-1.8-13.5-4.8-18.5c-2.8-4.8-7-8.8-12-11.3c-5.1-2.6-10.8-3.9-16.6-3.8
			c-8.2-0.2-16.3,1.9-23.5,6c-6.7,3.9-12.2,9.7-15.8,16.6c-3.8,7.4-5.7,15.6-5.5,23.9c0,9.5,2,17.7,6,24.5c3.7,6.6,9.1,12,15.7,15.6
			c6.5,3.6,13.7,5.4,21.1,5.3c8.6,0.1,17-2.4,24.2-7.2c7.3-4.9,12.7-12,15.5-20.4L1366.6,282.9z M1313.2,229.2
			c3.5-2.9,8-4.4,12.6-4.4c3.6,0,7.1,1,10.2,3c3.3,2.2,5.9,5.2,7.6,8.8c2,4.2,3,8.9,2.9,13.6h-43.6c0.4-3.2,1.2-6.3,2.2-9.2
			C1306.7,236.4,1309.5,232.3,1313.2,229.2z"/>
		<path d="M1079.3,219.5c-2.3,0.4-4.7,0.6-7.1,0.5h-4.5v-13.7c0-3.9,0.3-7.7,0.9-11.6c0.6-3.6,1.5-7.1,2.7-10.5l-1.1-0.7l-23.6,26.1
			v1.1c1.4,1.9,2.4,4,3,6.3c0.3,1.1,0.5,2.3,0.6,3.5l-6.7,4.1l0.4,1.6h6.7v67.7c0.1,2.9-0.1,5.8-0.6,8.7c-0.4,2.1-0.9,4.2-1.6,6.2
			h21c-0.7-1.9-1.2-3.9-1.4-5.9c-0.3-2.7-0.4-5.3-0.4-8v-68.8h13.6l3.3-8.7l-1.8-0.5C1082,218.2,1080.8,219.1,1079.3,219.5z"/>
		<path d="M839.1,180.6v2h3.4c3.3,0,5.7,0.9,7.2,2.7s2.3,4.7,2.3,8.7v107.5c0.1,5.8-0.5,11.6-1.7,17.3c-1.5,5.6-3.9,11-7,15.9l2,1.1
			l3.6-5.9c3.2-5.1,6.9-10,11-14.4c3.4-3.6,7-5.4,10.8-5.5v-75h26.8c7.9,0,13.7,0.7,17.6,2c3.6,1,6.4,3.9,7.4,7.5l1.5-0.4v-23.7
			l-1.5-0.4c-1.1,3.4-3.6,5.9-7.6,7.4c-4,1.5-9.8,2.2-17.4,2.2h-26.9v-43.4H888c7.4,0,13.3,0.7,17.8,1.9c4.3,1.2,8.2,3.4,11.4,6.4
			c3.8,3.9,7.1,8.2,9.8,13l1.8-0.7l-7.2-26.3L839.1,180.6z"/>
		<path d="M612.2,113c2.8-4.3,4.3-9.3,4.2-14.5c0-5.6-1.3-10.1-3.8-13.8c-2.8-3.8-6.7-6.8-11.1-8.6c-6.1-2.4-12.4-4.2-18.9-5.1
			c-4-0.6-8-1.5-11.9-2.9c-2.4-0.8-4.5-2.2-6.2-4.1c-1.3-1.9-2-4.1-1.9-6.4c0-3.4,1.7-6.5,4.6-8.3c3-2.1,7.2-3.1,12.3-3.1
			c5.3,0,9.7,1.3,13,3.9c3.3,2.6,5.5,6.5,6.1,10.7l14.7-2.2c-1.4-8.1-5-14.3-10.7-18.4s-13.4-6.2-23.1-6.2c-5.7-0.1-11.4,1-16.6,3.3
			c-4.4,2-8.3,5.1-11,9.1c-2.6,3.9-4,8.5-3.9,13.2c0,7.9,2.7,13.8,8.1,17.9c5.4,4.1,13.3,6.9,23.8,8.5c6.6,1,11.8,2.6,15.5,4.8
			c3.5,1.9,5.6,5.5,5.6,9.4c0.1,4-1.7,7.8-4.9,10.2c-3.3,2.6-7.9,3.8-13.9,3.8c-6.3,0-11.2-1.5-14.7-4.6c-3.5-3-5.7-7.7-6.7-13.9
			l-15,2.4c3.2,19,15.4,28.4,36.5,28.4c6.1,0.1,12.2-1.1,17.8-3.6C605.1,121,609.3,117.5,612.2,113z"/>
		<path d="M28.1,119.1c8.5,5.1,18.7,7.7,30.5,7.7c8.2,0.1,16.2-1.6,23.7-4.9c7-3.2,13.1-8,17.8-14.1c4.9-6.5,8.3-14,10-22L94.3,82
			c-2.4,10-6.7,17.7-12.8,23s-14,8-23.5,7.9c-8.3,0-15.4-2-21.3-6.1s-10.4-9.9-13.4-17.5c-3.1-7.6-4.6-16.5-4.6-26.8
			c-0.2-8.6,1.4-17.2,4.6-25.2c2.8-6.9,7.5-12.9,13.6-17.2c6-4.1,13.2-6.2,21.7-6.2c8.7,0,15.8,2.1,21.4,6.4
			c5.6,4.2,9.7,10.7,12.2,19.3l15.9-3.8c-3.2-11.6-9-20.5-17.5-26.6S71.5,0,58.7,0c-11,0-20.8,2.5-29.5,7.6
			c-8.7,5.1-15.7,12.7-20.1,21.7c-4.8,9.5-7.2,20.5-7.2,33.2c0,13.3,2.3,24.8,6.8,34.4C12.7,106.1,19.5,113.8,28.1,119.1z"/>
		<rect x="420.6" y="36" width="15" height="88.7"/>
		<rect x="127.6" y="2.1" width="15" height="122.6"/>
		<path d="M511.5,108.4c-4.1,4-9.4,5.9-15.8,5.9c-5.1,0.1-10-1.4-14.1-4.4c-4.1-3.1-7.3-7.2-9.2-12c-2.2-5.7-3.3-11.7-3.2-17.8
			c0-10.8,2.4-19.1,7.1-25s11.5-8.9,20.2-8.9c5-0.1,9.8,1.5,13.7,4.6c3.8,3.1,6.4,7.5,7.8,13.1l14.5-2.1c-0.9-5.5-3.2-10.7-6.6-15.1
			c-3.4-4.2-7.8-7.5-12.8-9.6c-5.5-2.3-11.3-3.4-17.2-3.3c-8.6,0-16,1.8-22.3,5.4c-6.4,3.6-11.5,9.2-14.6,15.8
			c-3.4,7-5.1,15.4-5.1,25.3c0,9.4,1.7,17.6,5.1,24.6c3.2,6.7,8.2,12.3,14.5,16.1c6.6,3.8,14.1,5.8,21.6,5.6
			c6.3,0.1,12.6-1.3,18.3-3.9c5.5-2.5,10.2-6.4,13.8-11.2c3.7-5.1,6.1-11,6.8-17.2l-14.9-2.2C518.2,99.1,515.7,104.5,511.5,108.4z"
			/>
		<path d="M304.6,76.2c-6.1-2.4-12.4-4.2-18.9-5.1c-4-0.6-8-1.5-11.9-2.9c-2.4-0.8-4.5-2.2-6.2-4.1c-1.3-1.9-2-4.1-1.9-6.4
			c0-3.4,1.7-6.5,4.6-8.3c3-2.1,7.1-3.1,12.3-3.1c5.3,0,9.7,1.3,13,3.9c3.3,2.6,5.5,6.5,6.1,10.7l14.7-2.2
			c-1.4-8.1-5-14.3-10.7-18.4s-13.4-6.2-23.1-6.2c-5.7-0.1-11.3,1-16.5,3.3c-4.4,2-8.3,5.1-11,9.1c-2.6,3.9-4,8.5-3.9,13.2
			c0,7.9,2.7,13.8,8.1,17.9c5.4,4.1,13.3,6.9,23.8,8.5c6.6,1,11.8,2.6,15.5,4.8c3.5,1.9,5.6,5.5,5.6,9.4c0.1,4-1.7,7.8-4.9,10.2
			c-3.3,2.6-7.9,3.8-13.9,3.8c-6.3,0-11.2-1.5-14.7-4.6c-3.5-3-5.7-7.7-6.7-13.9l-15,2.4c3.2,19,15.4,28.4,36.5,28.4
			c6.1,0.1,12.2-1.1,17.9-3.6c4.9-2.1,9.1-5.7,12-10.1c2.8-4.3,4.3-9.3,4.2-14.5c0-5.6-1.3-10.1-3.8-13.8
			C313,81,309.1,78,304.6,76.2z"/>
		<rect x="420.6" y="2.1" width="15" height="17.1"/>
		<path d="M388.2,76.2c-6.1-2.4-12.4-4.2-18.9-5.1c-4-0.6-8-1.5-11.9-2.9c-2.4-0.8-4.5-2.2-6.2-4.1c-1.3-1.9-2-4.1-1.9-6.4
			c0-3.4,1.7-6.5,4.6-8.3c3-2.1,7.1-3.1,12.3-3.1c5.3,0,9.7,1.3,13,3.9c3.3,2.6,5.5,6.5,6.1,10.7l14.7-2.3
			c-1.4-8.1-4.9-14.3-10.7-18.4c-5.7-4.1-13.4-6.2-23.1-6.2c-5.7-0.1-11.3,1-16.5,3.3c-4.4,2-8.3,5.1-11,9.1
			c-2.6,3.9-3.9,8.5-3.9,13.2c0,7.9,2.7,13.8,8.1,17.9c5.4,4.1,13.3,6.9,23.8,8.5c6.6,1,11.8,2.6,15.5,4.8c3.5,1.9,5.6,5.5,5.6,9.4
			c0.1,4-1.7,7.8-4.9,10.2c-3.3,2.6-7.9,3.8-13.9,3.8c-6.3,0-11.2-1.5-14.7-4.6c-3.5-3-5.7-7.7-6.7-13.9l-15,2.4
			c3.2,19,15.4,28.4,36.5,28.4c6.1,0.1,12.2-1.1,17.8-3.6c4.9-2.1,9.1-5.7,12-10.1c2.8-4.3,4.3-9.3,4.2-14.5
			c0-5.6-1.3-10.1-3.8-13.8C396.5,81,392.6,78,388.2,76.2z"/>
		<path d="M233.1,109.4c-0.2-3-0.4-7.3-0.4-12.8V64.7c0-7.6-1.2-13.6-3.6-18.1c-2.4-4.5-6.2-7.9-10.9-9.7c-4.9-2-11.3-3-19.1-3
			c-10.3,0-18.5,2.3-24.7,6.8S164.1,52,162.3,61l14.7,2.2c1.1-5.8,3.4-10.1,6.9-12.9c3.5-2.7,8.2-4.1,14.2-4.1
			c4.8,0,8.6,0.6,11.4,1.9c2.8,1.2,5,3.5,6.1,6.2c1.3,2.9,1.9,6.8,1.9,11.7v2.3c-5,1.6-13.4,3.3-25.2,5.1
			c-11.4,1.7-19.5,4.8-24.5,9.4c-5,4.5-7.4,10.6-7.4,18.2c-0.1,4.7,1.2,9.3,3.6,13.3c2.3,3.9,5.8,7,9.9,9c4.6,2.2,9.7,3.3,14.8,3.2
			c11.5,0.4,22.5-4.3,30.1-13c0.5,3.1,0.9,5.2,1.2,6.3c0.5,1.6,1.1,3.1,1.8,4.6h15.7c-1.2-2.4-2.2-4.9-3.1-7.5
			C233.8,114.6,233.3,112,233.1,109.4z M217.7,83.5c0.1,4.2-0.2,8.5-1,12.6c-0.6,3-1.8,5.8-3.6,8.2c-2.1,2.6-4.6,4.7-7.5,6.3
			c-4.7,2.8-9.3,4.2-13.6,4.2c-5.2,0-9.2-1.2-11.9-3.6s-4.1-5.8-4.1-10.1c-0.1-3.7,1.4-7.2,4.1-9.7c2.8-2.5,7.1-4.2,13.1-5.3
			c5.6-1.1,10.8-2.1,15.5-3.3c3.1-0.6,6.1-1.5,9.1-2.6L217.7,83.5z"/>
	</g>
</g>
</svg>
