<svg width="256" height="256" viewBox="0 0 256 256" fill="none" xmlns="http://www.w3.org/2000/svg">
<g clip-path="url(#clip0_67_3)">
<g clip-path="url(#clip1_67_3)">
<path d="M74.9864 0.895939C61.365 1.53594 52.0637 3.71194 43.9464 6.90127C35.41 10.1349 27.6793 15.1868 21.2904 21.7066C14.7975 28.1132 9.77487 35.8546 6.57037 44.3946C3.4237 52.5439 1.2797 61.8666 0.68237 75.4773C0.0850368 89.0879 -0.0536298 93.4826 0.0103702 128.245C0.0743702 163.008 0.23437 167.36 0.895704 181.013C1.54637 194.635 3.7117 203.936 6.90104 212.064C10.1864 220.48 14.581 227.605 21.7064 234.709C28.1191 241.205 35.868 246.228 44.4157 249.429C52.5544 252.576 61.8664 254.72 75.4877 255.317C89.1197 255.915 93.5037 256.053 128.256 255.989C163.008 255.925 167.381 255.765 181.024 255.115C194.677 254.475 203.925 252.288 212.064 249.109C220.596 245.874 228.323 240.822 234.709 234.304C241.204 227.891 246.227 220.142 249.429 211.595C252.576 203.456 254.72 194.144 255.306 180.533C255.904 166.88 256.053 162.507 255.978 127.755C255.914 93.0026 255.765 88.6399 255.114 74.9866C254.474 61.3333 252.298 52.0746 249.098 43.9359C245.867 35.4044 240.818 27.6775 234.304 21.2906C227.894 14.7964 220.149 9.77374 211.605 6.57061C203.456 3.43461 194.154 1.27994 180.522 0.703939C166.901 0.095939 162.517 -0.064061 127.754 -6.0985e-05C92.9917 0.063939 88.6397 0.223939 74.9864 0.895939ZM76.4797 232.288C63.9997 231.755 57.2264 229.675 52.7144 227.936C47.1459 225.901 42.1074 222.638 37.973 218.389C33.7101 214.273 30.4289 209.249 28.373 203.691C26.613 199.179 24.501 192.405 23.925 179.925C23.285 166.443 23.157 162.389 23.0717 128.213C23.0077 94.0373 23.1357 89.9946 23.7224 76.5013C24.2557 64.0319 26.3464 57.2479 28.0744 52.7359C30.3784 46.7519 33.1624 42.4959 37.621 37.9946C41.7408 33.7303 46.7684 30.449 52.3304 28.3946C56.8424 26.6346 63.605 24.5439 76.085 23.9466C89.5784 23.3066 93.621 23.1786 127.797 23.0933C161.962 23.0293 166.016 23.1573 179.53 23.7546C191.989 24.2879 198.773 26.3573 203.285 28.1066C209.258 30.4106 213.525 33.1733 218.026 37.6533C222.528 42.1333 225.29 46.3679 227.626 52.3519C229.386 56.8533 231.488 63.6159 232.074 76.1066C232.714 89.5999 232.864 93.6533 232.928 127.819C232.981 161.984 232.864 166.037 232.277 179.531C231.733 192.011 229.664 198.784 227.925 203.317C225.621 209.291 222.837 213.557 218.368 218.037C214.251 222.3 209.227 225.581 203.669 227.637C199.168 229.397 192.384 231.499 179.925 232.096C166.421 232.736 162.378 232.864 128.192 232.939C94.005 233.013 89.9837 232.864 76.4797 232.288ZM180.832 59.5839C180.836 62.6223 181.741 65.5912 183.433 68.115C185.125 70.6388 187.527 72.6042 190.336 73.7625C193.145 74.9209 196.234 75.2201 199.213 74.6225C202.192 74.0248 204.927 72.557 207.072 70.4048C209.216 68.2527 210.675 65.5128 211.262 62.5317C211.849 59.5506 211.539 56.4623 210.371 53.6575C209.203 50.8526 207.229 48.4572 204.7 46.7742C202.17 45.0912 199.198 44.1963 196.16 44.2026C192.088 44.2111 188.186 45.836 185.312 48.7203C182.437 51.6045 180.826 55.5121 180.832 59.5839ZM62.2824 128.128C62.3163 145.559 69.2732 162.262 81.6226 174.563C93.972 186.865 110.702 193.757 128.133 193.723C145.564 193.689 162.267 186.732 174.568 174.382C186.87 162.033 193.762 145.303 193.728 127.872C193.476 110.585 186.424 94.0931 174.099 81.9692C161.773 69.8453 145.167 63.0658 127.879 63.0995C110.59 63.1332 94.0105 69.9773 81.7324 82.1491C69.4543 94.3209 62.4664 110.84 62.2824 128.128ZM85.333 128.085C85.3162 119.647 87.802 111.392 92.4763 104.367C97.1505 97.3408 103.803 91.8588 111.593 88.6139C119.383 85.369 127.96 84.5069 136.24 86.1366C144.52 87.7664 152.13 91.8148 158.109 97.7699C164.088 103.725 168.167 111.319 169.83 119.592C171.493 127.866 170.665 136.446 167.451 144.249C164.237 152.052 158.782 158.726 151.775 163.429C144.768 168.131 136.524 170.65 128.085 170.667C122.482 170.678 116.932 169.585 111.751 167.451C106.57 165.318 101.86 162.184 97.8901 158.23C93.9202 154.276 90.768 149.579 88.6135 144.407C86.4589 139.234 85.3442 133.688 85.333 128.085Z" fill="black"/>
</g>
</g>
<defs>
<clipPath id="clip0_67_3">
<rect width="256" height="256" fill="white"/>
</clipPath>
<clipPath id="clip1_67_3">
<rect width="256" height="256" fill="white"/>
</clipPath>
</defs>
</svg>
