<?xml version="1.0" encoding="utf-8"?>
<!-- Generator: Adobe Illustrator 26.0.2, SVG Export Plug-In . SVG Version: 6.00 Build 0)  -->
<svg version="1.1" id="Layer_1" xmlns="http://www.w3.org/2000/svg" xmlns:xlink="http://www.w3.org/1999/xlink" x="0px" y="0px"
	 viewBox="0 0 116.3 26" style="enable-background:new 0 0 116.3 26;" xml:space="preserve">
<style type="text/css">
	.st0{fill-rule:evenodd;clip-rule:evenodd;}
</style>
<g>
	<path d="M102.8,26c-6.3,0-11.4-5.1-11.4-11.4c0-6.3,5.1-11.4,11.4-11.4c6.3,0,11.4,5.1,11.4,11.4C114.2,20.9,109.1,26,102.8,26z
		 M102.8,8.1c-3.6,0-6.5,2.9-6.5,6.5s2.9,6.5,6.5,6.5c3.6,0,6.5-2.9,6.5-6.5S106.4,8.1,102.8,8.1z"/>
	<polygon points="22.4,3.2 22.4,8.1 35.3,8.1 22.2,21.1 22.2,26 42.2,26 42.2,21.1 29.1,21.1 42.2,8.1 42.2,3.2 	"/>
	<rect x="45.4" y="3.2" width="4.9" height="22.8"/>
	<path d="M70.7,10.8c-0.3-4.3-4-7.6-8.4-7.6h-8.9V26h4.9v-6.4h4.2c2.3,0,4.5-0.9,6-2.6C70.1,15.4,70.9,13.1,70.7,10.8z M65.4,13.4
		c-0.6,0.9-1.6,1.5-2.7,1.5h-4.3V7.9h4.2c1.5,0,2.8,1,3.3,2.3C66.2,11.3,66,12.5,65.4,13.4z"/>
	<path d="M89.9,10.8c-0.3-4.3-4-7.6-8.4-7.6h-8.9V26h4.9v-6.4h4.2c2.3,0,4.5-0.9,6-2.6C89.3,15.4,90.1,13.1,89.9,10.8z M84.6,13.4
		c-0.6,0.9-1.6,1.5-2.7,1.5h-4.3V7.9h4.2c1.5,0,2.8,1,3.3,2.3C85.4,11.3,85.2,12.5,84.6,13.4z"/>
	<path d="M113.5,6.2c-0.2-0.1-0.4-0.3-0.6-0.6c-0.1-0.2-0.2-0.5-0.2-0.8c0-0.3,0.1-0.6,0.2-0.8c0.1-0.2,0.3-0.4,0.6-0.6
		c0.2-0.1,0.5-0.2,0.8-0.2c0.3,0,0.6,0.1,0.8,0.2c0.2,0.1,0.4,0.3,0.6,0.6c0.1,0.2,0.2,0.5,0.2,0.8c0,0.3-0.1,0.6-0.2,0.8
		c-0.1,0.2-0.3,0.4-0.6,0.6c-0.2,0.1-0.5,0.2-0.8,0.2C114,6.4,113.7,6.3,113.5,6.2z M114.8,5.8c0.2-0.1,0.3-0.2,0.4-0.4
		c0.1-0.2,0.2-0.4,0.2-0.6c0-0.2-0.1-0.4-0.2-0.6c-0.1-0.2-0.2-0.3-0.4-0.4c-0.2-0.1-0.4-0.2-0.6-0.2c-0.2,0-0.4,0.1-0.6,0.2
		c-0.2,0.1-0.3,0.2-0.4,0.4c-0.1,0.2-0.2,0.4-0.2,0.6c0,0.2,0.1,0.4,0.2,0.6c0.1,0.2,0.2,0.3,0.4,0.4c0.2,0.1,0.4,0.2,0.6,0.2
		C114.5,5.9,114.7,5.9,114.8,5.8z"/>
	<path d="M113.6,4h0.7c0.2,0,0.4,0,0.5,0.1c0.1,0.1,0.2,0.2,0.2,0.4c0,0.1,0,0.2-0.1,0.3c-0.1,0.1-0.1,0.1-0.2,0.2l0.3,0.6h-0.5
		l-0.3-0.5h-0.1v0.5h-0.4V4z M114.3,4.7c0.1,0,0.1,0,0.2,0c0,0,0.1-0.1,0.1-0.2c0-0.1,0-0.1-0.1-0.1c0,0-0.1,0-0.2,0h-0.2v0.4H114.3
		z"/>
	<path class="st0" d="M11.3,26c6.8-2.5,8.9-13.9,1.1-20.5c-0.3,2.1-1.1,4-1.1,4S9.1,1.5,2.2,0C4,2.5,3.7,6.1,3.7,6.1
		C3.4,10,0.4,13.3,0.4,17c-0.2,5.4,5.5,9,5.5,9v-2.6c0-2.2,1.2-3.9,2.7-3.9c1.5,0,2.7,1.8,2.7,3.9V26z"/>
</g>
</svg>
