<?xml version="1.0" encoding="utf-8"?>
<!-- Generator: Adobe Illustrator 26.0.2, SVG Export Plug-In . SVG Version: 6.00 Build 0)  -->
<svg version="1.1" id="Layer_1" xmlns="http://www.w3.org/2000/svg" xmlns:xlink="http://www.w3.org/1999/xlink" x="0px" y="0px"
	 viewBox="0 0 185.6 49.7" style="enable-background:new 0 0 185.6 49.7;" xml:space="preserve">
<g>
	<path d="M87.3,16.8c-1,0-1.8,0-2.8,0c0-4.1,0-8.1,0-12.2c0.9,0,1.8,0,2.7,0c0,0.6,0,1.1,0,1.8c0.2-0.2,0.3-0.4,0.4-0.5
		c1.4-1.8,3.7-2,5.4-1.2c1.4,0.6,2,1.7,2.3,3.1c0.1,0.5,0.1,1,0.1,1.5c0,11.6,0,23.2,0,34.8c0,0.2,0,0.4,0,0.5
		c-0.4,0.1-2,0.2-2.8,0.1c0-0.2,0-0.3,0-0.5c0-9,0-18.1,0-27.1c0-2.3,0-4.7,0-7c0-0.3,0-0.7-0.1-1c-0.2-1.2-1-2-2.2-2.1
		c-1.3-0.1-2.4,0.4-2.8,1.6c-0.2,0.5-0.3,1-0.3,1.6c0,2,0,4,0,6C87.3,16.3,87.3,16.5,87.3,16.8z"/>
	<path d="M102.4,44.7c-1,0-1.9,0-2.8,0c0-4.1,0-8.1,0-12.2c0.9,0,1.8,0,2.8,0c0,0.6,0,1.1,0,1.7c0.3-0.1,0.4-0.3,0.5-0.5
		c1.1-1.3,2.6-1.7,4.3-1.4c0.9,0.2,1.7,0.7,2.3,1.5c0.1,0.2,0.2,0.3,0.4,0.5c0.2-0.2,0.3-0.4,0.5-0.5c1.3-1.4,2.9-1.8,4.8-1.5
		c1.7,0.3,2.8,1.6,3.1,3.4c0.1,0.4,0.1,0.9,0.1,1.3c0,2.4,0,4.8,0,7.2c0,0.2,0,0.3,0,0.5c-0.9,0-1.8,0-2.8,0c0-0.2,0-0.4,0-0.6
		c0-2,0-4,0-6.1c0-0.4,0-0.9-0.1-1.3c-0.3-1.1-1-1.7-2.1-1.8c-1.2-0.1-2.2,0.4-2.6,1.5c-0.2,0.5-0.3,1-0.3,1.6c0,2,0,4.1,0,6.1
		c0,0.2,0,0.4,0,0.6c-0.5,0.1-2.1,0.2-2.8,0c0-0.2,0-0.4,0-0.6c0-2,0-4.1,0-6.1c0-0.4,0-0.7-0.1-1.1c-0.2-1.1-1-1.8-2-1.9
		c-1.3-0.1-2.3,0.4-2.7,1.5c-0.2,0.5-0.3,1.2-0.3,1.7c0,1.9,0,3.9,0,5.8C102.4,44.1,102.4,44.4,102.4,44.7z"/>
	<path d="M181,41.6c-0.2,0.2-0.4,0.4-0.6,0.6c-1.5,1.6-3.4,1.9-5.5,1.3c-2.1-0.7-3.3-2.1-3.7-4.2c-0.3-1.4-0.1-2.7,0.5-4
		c0.9-1.7,2.3-2.7,4.2-3c1.8-0.2,3.3,0.3,4.6,1.6c0.1,0.1,0.2,0.2,0.3,0.3c0,0,0,0,0.1,0c0-0.5,0-1.1,0-1.6c0.5-0.1,2.2-0.2,2.8,0
		c0,0.2,0,0.4,0,0.6c0,3.1,0,6.1,0,9.2c0,0.6-0.1,1.3-0.2,1.9c-0.4,2.1-1.7,3.5-3.8,4c-2.6,0.6-5.1,0.4-7.6-0.9
		c-0.2-0.1-0.3-0.2-0.5-0.3c0.3-0.7,0.7-1.4,1-2.1c0.3,0.1,0.5,0.3,0.7,0.4c1.4,0.7,2.8,1,4.4,0.8c1.9-0.2,2.9-1.3,3.1-3.1
		c0-0.3,0-0.7,0-1C181,41.9,181,41.8,181,41.6z M177.4,41.3c0.1,0,0.3,0,0.4,0c1.5-0.1,2.7-1.1,3.1-2.5c0.4-1.4-0.1-2.8-1.3-3.6
		c-1.3-0.8-2.7-0.9-4.1-0.1c-0.7,0.4-1.2,1.1-1.5,1.9C173.5,39.3,175,41.3,177.4,41.3z"/>
	<path d="M135.2,47c0.3-0.7,0.7-1.3,1-2.1c0.2,0.1,0.4,0.2,0.6,0.3c1.5,0.8,3.1,1.1,4.7,0.9c1.7-0.3,2.7-1.3,2.9-3
		c0-0.4,0-0.9,0-1.4c-0.3,0-0.3,0.2-0.5,0.4c-2.1,2.3-5.3,1.9-7,0.6c-1.2-0.8-1.9-1.9-2.2-3.3c-0.2-1.2-0.2-2.3,0.2-3.4
		c0.7-2.2,2.7-3.6,5-3.7c1.6-0.1,2.9,0.4,4.1,1.5c0.1,0.1,0.3,0.2,0.5,0.5c0-0.7,0-1.2,0-1.7c1,0,1.9,0,2.8,0c0,0.2,0,0.4,0,0.6
		c0,3.1,0,6.2,0,9.4c0,0.6-0.1,1.3-0.2,1.9c-0.5,2.1-1.8,3.4-3.8,3.9c-2.6,0.6-5.1,0.4-7.4-0.8c-0.1-0.1-0.3-0.1-0.4-0.2
		C135.3,47.1,135.3,47.1,135.2,47z M140.9,41.4c0.1,0,0.2,0,0.4,0c1.5-0.1,2.7-1.1,3.1-2.5c0.4-1.4-0.1-2.8-1.3-3.6
		c-1.3-0.9-2.7-0.9-4.1-0.2c-0.8,0.4-1.3,1.1-1.5,1.9C136.9,39.3,138.5,41.4,140.9,41.4z"/>
	<path d="M153.8,16.8c-0.9,0-1.8,0-2.7,0c0-0.4,0-0.8,0-1.3c-0.2,0.2-0.3,0.2-0.4,0.3c-1.6,1.4-3.5,1.6-5.5,0.9
		c-1.5-0.5-2.3-1.7-2.4-3.3c-0.1-1.7,0.7-3,2.2-3.7c0.7-0.3,1.4-0.5,2.1-0.5c1.2-0.1,2.4,0,3.6,0.3c0.1,0,0.3,0.1,0.4,0.1
		c0.2-1-0.2-1.9-1.1-2.4c-0.5-0.2-1-0.3-1.5-0.4c-1-0.1-2,0.1-2.9,0.4c-0.3,0.1-0.5,0.2-0.9,0.3c-0.1-0.4-0.3-0.7-0.4-1.1
		c-0.1-0.4-0.2-0.7-0.4-1.1c0-0.1,0.1-0.1,0.1-0.1c2-0.9,4-1.2,6.1-0.8c2.3,0.4,3.7,2.1,3.7,4.5c0,1.1,0,2.1,0,3.2c0,1.3,0,2.7,0,4
		C153.8,16.4,153.8,16.6,153.8,16.8z M151,11.7c-1.2-0.4-2.4-0.6-3.7-0.4c-0.4,0.1-0.9,0.3-1.2,0.5c-0.9,0.6-0.9,2,0,2.6
		c0.3,0.2,0.6,0.3,0.9,0.4c0.7,0.2,1.5,0.1,2.2-0.1C150.6,14.3,151.3,13.2,151,11.7z"/>
	<path d="M131.9,44.7c-1,0-1.8,0-2.8,0c0-0.4,0-0.8-0.1-1.3c-0.2,0.2-0.4,0.3-0.5,0.4c-1.7,1.4-3.7,1.5-5.6,0.7
		c-1.4-0.6-2.1-1.8-2.1-3.3c0-1.5,0.6-2.7,2-3.5c0.6-0.3,1.3-0.5,2-0.6c1.3-0.1,2.6-0.1,3.9,0.3c0.1,0,0.3,0.1,0.4,0.1
		c0.2-0.9-0.2-1.8-1-2.3c-0.5-0.3-1-0.4-1.5-0.4c-1.1-0.1-2.1,0.1-3.1,0.5c-0.2,0.1-0.5,0.2-0.8,0.3c-0.3-0.8-0.5-1.5-0.8-2.3
		c1-0.5,2-0.8,3-0.9c1-0.1,2-0.2,3,0c2.4,0.4,3.8,1.9,4,4.3c0,0.3,0,0.6,0,0.9c0,2.1,0,4.3,0,6.4C131.9,44.2,131.9,44.4,131.9,44.7z
		 M129.1,39.6c-1.1-0.4-2.1-0.5-3.2-0.5c-0.4,0-0.9,0.1-1.3,0.3c-0.7,0.3-1.1,0.9-1.1,1.6c0,0.8,0.5,1.3,1.2,1.6
		c0.7,0.3,1.5,0.3,2.3,0.1C128.6,42.3,129.3,41.3,129.1,39.6z"/>
	<path d="M79.4,13.4c0.6,0.5,1.1,1,1.6,1.4c-0.1,0.1-0.2,0.3-0.3,0.4c-2.6,2.7-7.1,2.4-9.3,0c-1.4-1.5-1.9-3.4-1.6-5.4
		c0.3-2,1.2-3.7,3-4.7c3.2-1.8,7.1-0.3,8.3,3.2c0.4,1.1,0.5,2.3,0.4,3.4c-1.5,0.1-2.9,0-4.4,0c-1.5,0-3,0-4.5,0
		c0.2,1.2,0.7,2.2,1.8,2.7C76.3,15.3,77.9,14.8,79.4,13.4z M72.6,9.8c2.1,0,4.1,0,6.2,0c0-1.7-1.2-3.2-2.9-3.2
		C74.2,6.5,72.9,7.8,72.6,9.8z"/>
	<path d="M110,11.7c-3,0-6,0-9,0c0.2,1.2,0.7,2.2,1.8,2.7c0.9,0.4,1.8,0.5,2.7,0.3c0.9-0.2,1.6-0.7,2.3-1.4c0.6,0.5,1.1,1,1.7,1.5
		c-0.8,0.9-1.8,1.6-2.9,2c-1.4,0.4-2.8,0.4-4.2,0c-2.5-0.9-3.8-2.6-4.1-5.2c-0.2-1.4,0-2.8,0.7-4.1c1.9-3.6,6.1-3.7,8.3-2.3
		c0.3,0.2,0.6,0.4,0.9,0.7C109.7,7.4,110.1,9.4,110,11.7z M107.2,9.8c-0.2-2.1-1.5-3.4-3.3-3.2c-1.6,0.1-3,1.6-2.9,3.2
		C103.1,9.8,105.1,9.8,107.2,9.8z"/>
	<path d="M157.4,44.7c0-4.1,0-8.1,0-12.2c0.9,0,1.8,0,2.8,0c0,0.6,0,1.1,0,1.8c0.2-0.3,0.4-0.4,0.5-0.6c1.4-1.6,3.7-2,5.6-1
		c1.1,0.6,1.7,1.6,2,2.9c0.1,0.4,0.1,0.8,0.1,1.2c0,2.5,0,5,0,7.5c0,0.1,0,0.2,0,0.4c-0.9,0-1.8,0-2.8,0c0-0.2,0-0.4,0-0.6
		c0-2,0-4,0-6.1c0-0.4,0-0.7-0.1-1.1c-0.2-1.2-1-1.9-2.1-2c-1.4-0.1-2.5,0.4-2.9,1.6c-0.2,0.5-0.2,1-0.3,1.6c0,2,0,4,0,6
		c0,0.2,0,0.4,0,0.7C159.2,44.7,158.3,44.7,157.4,44.7z"/>
	<path d="M121.3,5.8c-0.4,0.7-0.7,1.3-1.1,2c-0.3-0.1-0.5-0.3-0.7-0.4c-0.9-0.4-1.9-0.8-2.9-0.8c-0.4,0-0.7,0.1-1,0.3
		c-0.6,0.3-0.8,1.3,0,1.7c0.4,0.2,0.8,0.4,1.2,0.6c0.7,0.3,1.4,0.5,2.1,0.7c0.4,0.1,0.8,0.3,1.2,0.5c2.5,1.4,1.8,4.8,0,5.8
		c-1,0.6-2.1,0.8-3.2,0.7c-1.7-0.1-3.3-0.6-4.7-1.6c-0.1-0.1-0.2-0.1-0.3-0.2c0.4-0.6,0.8-1.2,1.2-1.9c0.2,0.1,0.4,0.3,0.6,0.4
		c1.1,0.7,2.3,1.2,3.6,1.1c0.4,0,0.7-0.1,1.1-0.3c0.9-0.4,0.9-1.4,0.1-2c-0.3-0.2-0.7-0.3-1-0.4c-0.7-0.2-1.3-0.4-2-0.6
		c-0.4-0.1-0.8-0.3-1.2-0.5c-2.6-1.3-2.1-4.6-0.3-5.8c0.7-0.4,1.4-0.7,2.2-0.8C118,4.2,119.7,4.8,121.3,5.8z"/>
	<path d="M131,14.2c0,0.8,0,1.5,0,2.3c-0.4,0.3-0.9,0.5-1.5,0.5c-0.6,0.1-1.2,0.1-1.8,0c-1.6-0.2-2.5-1.1-2.7-2.8c0-0.3,0-0.6,0-0.9
		c0-1.9,0-3.8,0-5.6c0-0.2,0-0.4,0-0.7c-0.5,0-1,0-1.5,0c0-0.8,0-1.6,0-2.4c0.5,0,1,0,1.5,0c0-1.1,0-2.2,0-3.3c1,0,1.8,0,2.8,0
		c0,1.1,0,2.2,0,3.3c1.1,0,2.2,0,3.3,0c0,0.8,0,1.6,0,2.4c-1.1,0-2.1,0-3.2,0c0,0.2-0.1,0.4-0.1,0.5c0,1.8,0,3.6,0,5.4
		c0,0.1,0,0.2,0,0.4c0.1,0.8,0.5,1.2,1.2,1.3c0.5,0,1-0.1,1.4-0.2C130.7,14.3,130.8,14.2,131,14.2z"/>
	<path d="M141,4.3c0,1,0,1.9,0,2.9c-0.1,0-0.3,0-0.4,0.1c-2,0.2-3.3,1.3-3.7,3.3c-0.1,0.5-0.1,1.1-0.2,1.6c0,1.3,0,2.6,0,3.9
		c0,0.2,0,0.4,0,0.7c-0.9,0-1.8,0-2.8,0c0-4.1,0-8.1,0-12.2c0.9,0,1.8,0,2.8,0c0,0.8,0,1.6,0,2.4c0,0,0.1,0,0.1,0
		c0.1-0.2,0.2-0.4,0.3-0.5c0.7-1.1,1.5-1.9,2.8-2.1C140.3,4.3,140.7,4.3,141,4.3z"/>
	<path d="M55.3,16.8c0-3,0-6.1,0-9.1c3.7,0,7.4,0,11.1,0c0,0.8,0,1.6,0,2.5c-2.7,0-5.5,0-8.2,0c0,2.2,0,4.4,0,6.6
		C57.2,16.8,56.3,16.8,55.3,16.8z"/>
	<path d="M150.9,32.5c0.9,0,1.8,0,2.7,0c0,4.1,0,8.1,0,12.2c-0.9,0-1.8,0-2.7,0C150.9,40.6,150.9,36.6,150.9,32.5z"/>
	<path d="M55.3,3.8c0-0.9,0-1.7,0-2.6c4,0,8,0,12,0c0,0.9,0,1.7,0,2.6C63.3,3.8,59.4,3.8,55.3,3.8z"/>
	<path d="M150.8,27.9c1,0,2,0,3,0c0,0.9,0,1.7,0,2.6c-0.5,0.1-2.4,0.1-3,0C150.8,29.7,150.8,28.8,150.8,27.9z"/>
	<path d="M47.3,23.9c0-11.8-9-21.5-20.4-22.6c0.2,0.2,0.3,0.4,0.4,0.5c0.3,0.6,0.4,1.2,0.1,1.8c-0.3,0.6-1,0.9-1.7,0.6
		c-0.6-0.3-0.8-0.9-0.5-1.5c0-0.1,0.1-0.2,0.2-0.3c0.1-0.4,0-0.6-0.4-0.7c-0.5-0.1-1,0.1-1.4,0.5c-0.4,0.5-0.7,1-0.8,1.6
		c-0.2,0.7-0.3,1.3-0.5,2c-0.3,1.5-0.5,2.9-0.8,4.5c1.1,0,2.2,0,3.3,0c-0.1,0.4-0.1,0.7-0.2,1c-0.1,0.3-0.2,0.4-0.5,0.4
		c-0.2,0-0.4,0-0.6,0c-0.7,0-1.5,0-2.2,0c-0.1,0.3-0.1,0.4-0.2,0.6c-0.7,3.5-1.5,7-2.5,10.5c-0.6,2.2-1.2,4.5-2.1,6.6
		c-0.4,1-0.9,2-1.5,2.9c-0.8,1.3-1.9,2.1-3.3,2.5c-0.8,0.2-1.6,0.2-2.4-0.3C8.4,34,8.1,33,8.4,32.1c0.3-0.6,0.8-0.9,1.4-0.9
		c0.9,0,1.4,0.8,1,1.7c-0.1,0.1-0.1,0.2-0.2,0.3c-0.1,0.3,0,0.4,0.2,0.5c0.4,0.1,0.8,0,1.1-0.3c0.5-0.5,1-1.1,1.3-1.8
		c0.2-0.5,0.3-1,0.5-1.5c0.5-2.1,1-4.1,1.4-6.2c0.9-4,1.8-8,2.7-11.9c0-0.1,0-0.2,0-0.3c-1.1,0-2.1,0-3.2,0c0.1-0.3,0.1-0.6,0.2-0.9
		c0-0.3,0.2-0.4,0.5-0.4c0.3,0,0.6-0.1,0.9-0.1c1.3,0,2.1-0.7,2.5-1.9c0.5-1.4,1-2.7,1.6-4.1c0.4-1,1.1-2,1.9-2.7
		c0,0,0.1-0.1,0.1-0.2C10.9,2.3,1.8,12,1.8,23.9c0,6.4,2.6,12.1,6.8,16.2c1.3,1.2,2.7,2.3,4.2,3.3c3.4,2,7.3,3.2,11.5,3.2
		c2.2,0,4.4-0.3,6.7-0.9c0.5-0.1,0.6-0.2,0.6-0.8c0-2.7,0-5.3,0-8c0-1.2,0-2.3,0-3.5c0-0.5,0-0.5-0.5-0.6c-0.2-0.1-0.4-0.1-0.6-0.1
		c-0.4-0.1-0.9-0.2-1.3-0.3c0-0.2,0-0.3,0-0.5c0-0.5,0-0.6,0.5-0.7c1.4-0.5,2.8-1.1,4.2-1.6c0.3-0.1,0.6-0.1,1-0.2c0,5,0,9.9,0,14.9
		c0.2-0.1,0.3-0.1,0.4-0.2c0.9-0.6,1.9-1.1,2.8-1.7c0.4-0.3,0.8-0.6,1.2-1C44.1,37.1,47.3,30.8,47.3,23.9z M32.6,23.3
		c-1.2,0-2.1-0.9-2.1-2.1c0-1.2,0.9-2.1,2.1-2.1c1.2,0,2.2,1,2.2,2.2C34.8,22.4,33.8,23.3,32.6,23.3z"/>
</g>
</svg>
