<?xml version="1.0" encoding="utf-8"?>
<!-- Generator: Adobe Illustrator 26.0.2, SVG Export Plug-In . SVG Version: 6.00 Build 0)  -->
<svg version="1.1" id="Layer_1" xmlns="http://www.w3.org/2000/svg" xmlns:xlink="http://www.w3.org/1999/xlink" x="0px" y="0px"
	 viewBox="0 0 474 23.6" style="enable-background:new 0 0 474 23.6;" xml:space="preserve">
<g id="Layer_2_00000033359777611042806340000005614310737339747233_">
	<g id="Layer_1-2">
		<path d="M346.2,6.2L346.2,6.2l2.9,8.3h-5.8L346.2,6.2z M343.7,0.6l-8.5,22.5h5l1.8-5h8.4l1.7,5h5.1l-8.4-22.5H343.7z"/>
		<polygon points="376.5,0.6 371.5,16.1 371.4,16.1 366.1,0.6 359.2,0.6 359.2,23.1 363.8,23.1 363.8,7.3 363.9,7.3 369.4,23.1 
			373.2,23.1 378.7,7.2 378.8,7.2 378.8,23.1 383.4,23.1 383.4,0.6 		"/>
		<polygon points="402.8,0.1 394,23.6 397.6,23.6 406.4,0.1 		"/>
		<polygon points="414.5,0.1 405.8,23.6 409.3,23.6 418.1,0.1 		"/>
		<path d="M437.5,11.2c0.5,0,1.1,0,1.6-0.1c0.5-0.1,1-0.2,1.4-0.5c0.4-0.2,0.8-0.6,1-1c0.3-0.5,0.4-1.1,0.4-1.7
			c0-0.6-0.1-1.2-0.4-1.7c-0.2-0.4-0.6-0.8-1-1c-0.4-0.3-0.9-0.4-1.4-0.5c-0.5-0.1-1.1-0.1-1.6-0.1h-3.9v6.8L437.5,11.2z M438.9,0.6
			c1.2,0,2.5,0.2,3.6,0.6c0.9,0.4,1.7,0.9,2.4,1.6c0.6,0.7,1.1,1.5,1.4,2.3c0.6,1.7,0.6,3.6,0,5.3c-0.3,0.9-0.7,1.7-1.4,2.3
			c-0.7,0.7-1.5,1.3-2.4,1.6c-1.1,0.4-2.4,0.6-3.6,0.6h-5.2v8.1h-5V0.6H438.9z"/>
		<polygon points="467,0.6 462,16.1 462,16.1 456.7,0.6 449.8,0.6 449.8,23.1 454.4,23.1 454.4,7.3 454.4,7.3 460,23.1 463.8,23.1 
			469.3,7.2 469.4,7.2 469.4,23.1 474,23.1 474,0.6 		"/>
		<path d="M48.2,18.2c-1.7,2.3-4.9,2.9-7.3,1.2c-0.5-0.3-0.9-0.7-1.2-1.2c-1.3-1.8-1.9-3.9-1.7-6.1c0-3,0.6-5.3,1.7-6.7
			c1-1.4,2.6-2.2,4.3-2.2c1.1,0,2.1,0.4,3,1C47.9,5,48.7,5.9,49.1,7c0.6,1.5,0.9,3.2,0.9,4.8C50,14.6,49.4,16.8,48.2,18.2 M48.1,2.4
			c-1.2-0.8-2.6-1.3-4.1-1.3c-2.3,0-4.4,1.1-5.8,2.9c-1.5,1.9-2.3,4.6-2.3,8.2c0,2.6,0.7,5.1,2.1,7.2c1.3,2.1,3.6,3.3,6,3.3
			c2.4,0,4.7-1.2,6-3.2c1.5-2.2,2.2-4.9,2.1-7.5c0-2-0.3-4-1.1-5.8C50.4,4.6,49.4,3.3,48.1,2.4"/>
		<polygon points="55.3,1.5 55.3,22.2 57.3,22.2 57.3,5.9 57.5,5.8 66.5,22.2 68.7,22.2 68.7,1.5 66.7,1.5 66.7,17.9 66.5,17.9 
			57.5,1.5 		"/>
		<path d="M83.9,16.9c-0.3,1-1,1.8-1.8,2.4c-1,0.5-2.2,0.8-3.4,0.7H75V3.8h3.7c1-0.1,2,0.1,2.9,0.4c1,0.5,1.8,1.4,2.3,2.5
			c0.7,1.6,0.9,3.3,0.9,5.1C84.8,13.5,84.6,15.2,83.9,16.9 M84.6,3.7C83.9,2.8,83,2.2,82,1.9c-1.1-0.3-2.2-0.4-3.3-0.4h-5.8v20.8H79
			c1.5,0.1,2.9-0.3,4.2-1c1.2-0.9,2.1-2.1,2.6-3.5c0.7-1.9,1.1-4,1-6c0-1.6-0.2-3.2-0.6-4.8C85.9,5.8,85.4,4.7,84.6,3.7"/>
		<path d="M109.8,11.5l-0.1-0.2c-0.5-1.1-1.1-2.3-1.8-3.5l-3.3-6.3h-2.6l6.6,12v8.8h2.1v-8.8l6.8-11.9h-2.4l-3.3,6.1
			c-0.7,1.4-1.4,2.6-1.9,3.7L109.8,11.5z"/>
		<path d="M92.5,13.9l1.8-5.9c0.6-1.8,1-3.2,1.2-4.3h0.1c0.3,1.1,0.7,2.6,1.2,4.3l1.8,5.9H92.5z M96.7,1.5h-2.3l-7,20.8h2.4l2-6.3
			v-0.1h7.5V16l2,6.3h2.4L96.7,1.5z"/>
		<path d="M0.7,17.1L0.1,17c-0.2,0.9-0.1,1.8,0.1,2.7c0.3,1.3,1.3,2.4,2.5,2.9c2.7,1.1,6.1-1,8-3.7c1.2-1.6,2.2-3.4,3.1-5.2
			c0.8-1.6,1.5-3.3,2-4.6c0.5-1.3,1.1-2.9,1.6-4.1c0.3-0.8,0.8-1.4,1.6-1.7c-0.3,0.3-0.5,0.7-0.6,1.2c-0.2,0.5-0.2,1-0.2,1.6
			c0,1.2-0.1,5.9-0.1,8.2c0,1.7-0.1,2.3-0.1,3.1c0,0.8-0.2,1.6-0.6,2.3c-0.3,0.5-0.5,0.8-0.5,0.8l0.5,0.4c0,0,2.7-2.8,4.1-4.2
			s7.9-8.7,8.9-9.6c0,0-1.7,3.1-2.6,5c-1.1,2.1-2,4.3-2.8,6.5c-0.6,2.1-0.5,4,1.7,4.3s4.5-2.2,5.5-3.5c0.5-0.7,1-1.4,1.5-2.2
			l-0.6-0.3c-0.4,0.7-0.8,1.3-1.3,1.9c-0.8,1.1-1.9,2.1-3.1,2.7c-1.3,0.8-1.8,0.2-1.5-1.8c0.6-2.5,1.5-4.9,2.6-7.2
			c1.1-2.3,4.5-9.5,5.6-10.6s1.7-1.2,2.6-1l0.4-0.8c-0.6-0.2-1.2-0.1-1.8,0.1c-1.1,0.4-2,1.1-5,4.3L20.2,16.6c0,0-0.5-8.9-0.6-10.4
			s0-2.7,0.8-3.5c0.3-0.2,0.7-0.4,1.1-0.4l0.4-0.9h-5.2c-1,0-5.3,0-7.2,1.4C8.2,3.7,7.9,5.4,8.7,6.6c0,0,0,0,0,0
			c0.4,0.6,0.8,1.1,1.2,1.5l0.6-0.3C10,7.4,9.8,6.7,9.8,6.1c0.1-1.3,1-2.4,2.2-2.8c1.2-0.5,2.4-0.7,3.6-0.7h3.7
			c-0.3,0-0.7,0.1-1,0.2c-0.3,0.1-0.7,0.2-1,0.4c-0.4,0.3-0.8,0.8-1.1,1.2c-0.8,1.4-1.5,2.8-2.1,4.3c-0.7,1.5-1.4,2.9-1.9,3.9
			c-0.8,1.5-1.6,3-2.7,4.3c-0.8,1-1.7,2-2.7,2.8c-0.9,0.8-2.1,1.2-3.3,1.1c-1,0-2-0.5-2.5-1.4C0.7,18.8,0.6,17.9,0.7,17.1"/>
		<path d="M139.3,13.4c-0.4,0.6-0.8,1-1.2,1.4c-0.6,0.6-1.3,1.3-1.8,1.8c-1.9,1.8-4,3.3-6.3,4.5c-2.7,1.3-4.5,0.6-4.9-0.5
			c-0.2-0.9-0.1-1.9,0.3-2.8l-0.4-0.2c-0.3,0.6-0.5,1.3-0.7,2c-0.2,0.9-0.2,2.9,1.5,3.6s5.3,0.2,8-1.6c2.6-1.8,4.9-4,6.7-6.5
			c0.3-0.3,1.3-1.7,1.3-1.7h2.6c0.3,0,0.7,0,1-0.1c0.3-0.1,0.6-0.1,0.9-0.3c0.2-0.1,0.4-0.2,0.5-0.4c0.1-0.1,0.3-0.2,0.4-0.4
			c0.1-0.1,0.2-0.3,0.3-0.4c0.2-0.3,0.3-0.5,0.3-0.5c-0.3,0.2-0.7,0.3-1,0.4c-0.3,0.1-0.5,0.1-0.8,0.2c-0.3,0-0.7,0.1-1,0.1h-2.3
			c0,0,1.1-1.6,1.8-2.7c0.8-1.2,1.7-2.4,2.1-3c1.4-1.9,3.4-3.3,5.7-4.1c-0.8,1.2-1.4,2.4-2,3.7c-0.9,1.9-2.2,5.3-3,7.8
			s-1.5,4.8-1.1,6.7c0.1,1.4,1.4,2.5,2.8,2.4c0.2,0,0.5-0.1,0.7-0.2c1.3-0.5,2.5-1.5,3.2-2.8c0.6-0.9,1.1-1.9,1.5-2.9l-0.6-0.2
			c-0.3,0.8-0.7,1.5-1.1,2.2c-0.7,1.1-1.6,2-2.7,2.6c-0.8,0.4-1.5,0.2-1.5-1.6s1.4-6.5,2.7-10s2.6-6.6,3.5-7.8
			c0.2-0.4,0.5-0.7,0.9-1c0.2-0.2,0.5-0.3,0.8-0.3c0.3-0.1,0.7-0.1,1,0l0.4-0.8c-0.4-0.1-0.8-0.1-1.1,0c-0.3,0.1-0.5,0.2-0.8,0.3
			l-0.6,0.2L153,1.4h-6.5c-1,0-5.3,0-7.2,1.4c-1.3,0.9-1.6,2.6-0.7,3.8c0,0,0,0,0,0c0.3,0.6,0.8,1.1,1.2,1.5l0.6-0.3
			c-0.4-0.5-0.7-1.1-0.6-1.7c0.1-1.3,1-2.4,2.2-2.8c1.2-0.5,2.4-0.7,3.6-0.7h4.3c-0.8,0.2-1.6,0.5-2.4,0.9c-1.1,0.7-2.1,1.6-2.9,2.7
			c-1.1,1.5-3.8,5.3-4.1,5.8h-4.1c-1.7,0.1-3.4,0.5-4.9,1.3c-2.2,1-2.4,1.4-2.5,2.1s0.4,1.2,1.2,1.4h0.4c-0.4-0.4-0.5-1-0.4-1.5
			c0.2-0.8,0.9-1.5,1.8-1.6c1.2-0.2,2.4-0.3,3.6-0.3L139.3,13.4L139.3,13.4z"/>
		<path d="M166.1,10.7h-5V3.6h5.5c1-0.1,2,0.3,2.8,0.9c0.7,0.7,1,1.6,1,2.6c0,0.7-0.2,1.4-0.5,2c-0.3,0.6-0.8,1-1.4,1.3
			C167.8,10.7,166.9,10.8,166.1,10.7 M169.2,14.1c-0.3-0.4-0.7-0.7-1.1-1l-0.5-0.3l0.6-0.1c1.2-0.2,2.4-0.8,3.2-1.8
			c0.8-1.1,1.3-2.4,1.2-3.8c0-1.1-0.2-2.1-0.7-3.1c-0.4-0.8-1-1.5-1.9-1.9c-1.1-0.5-2.3-0.7-3.5-0.6H159v20.8h2.1V13h2.7
			c0.6,0,1.2,0.1,1.8,0.3c0.5,0.3,1,0.7,1.4,1.2c0.7,1.1,1.4,2.3,2,3.5l2.3,4.3h2.6l-2.9-5.6C170.5,15.7,169.9,14.8,169.2,14.1"/>
		<polygon points="174.8,3.8 180.5,3.8 180.5,22.3 182.5,22.3 182.5,3.8 188.2,3.8 188.2,1.5 174.8,1.5 		"/>
		<path d="M220,16.4c-1.3,1.4-2.8,2.7-4.4,3.8c-2.5,1.5-5.3,2.2-8.1,2c-2.8-0.1-5.5-1-5.5-5.2c0.1-3.6,1.5-7.1,3.8-9.8
			c1.6-2,4.8-4.5,8.2-4.9c1-0.2,2-0.1,2.9,0.3c0.6,0.3,1,0.9,1.2,1.5c0.3,1.3,0.1,2.6-0.6,3.8c0.2,0.2,0.5,0.2,0.7,0.1
			c0.2-0.1,0.4-0.3,0.6-0.5c0.2-0.3,0.4-0.5,0.6-0.8c0.7-0.9,1-2,0.7-3.1c-0.4-1.2-2.5-2.3-5.6-2.3c-2.7,0-5.9,1-9.6,4.2
			c-3,2.5-5,6.1-5.6,9.9c-0.4,2.8-0.1,6.1,4,7.5c4,1.2,8.3,0.7,11.9-1.3c2.1-1.2,4-2.8,5.5-4.8L220,16.4z"/>
		<polygon points="224.8,1.5 222.7,1.5 222.7,22.2 233.2,22.2 233.2,20 224.8,20 		"/>
		<path d="M239.5,19.6c-0.7-0.5-1.2-1.2-1.5-2c-0.4-1.4-0.5-2.8-0.4-4.1v-12h-2.1v12c0,3.4,0.6,5.8,1.7,7.1c1.3,1.4,3.1,2.1,5,2
			c1.4,0.1,2.8-0.3,3.9-1.1c1-0.7,1.8-1.8,2.1-3c0.4-1.6,0.6-3.3,0.6-5v-12h-2.1v12c0,2.7-0.4,4.5-1.1,5.4c-0.9,1-2.2,1.5-3.6,1.4
			C241.1,20.3,240.3,20.1,239.5,19.6"/>
		<path d="M263,18.5c-0.3,0.6-0.9,1-1.5,1.3c-0.7,0.2-1.4,0.3-2.1,0.3H255v-7.4h4.1c0.9,0,1.8,0.1,2.6,0.4c0.6,0.3,1,0.7,1.4,1.2
			c0.4,0.6,0.5,1.3,0.5,2.1C263.6,17,263.4,17.8,263,18.5 M255,3.8h3.5c0.9-0.1,1.8,0,2.6,0.3c0.5,0.2,0.9,0.6,1.2,1.1
			c0.3,0.6,0.5,1.3,0.5,1.9c0,0.7-0.1,1.4-0.5,2c-0.3,0.5-0.8,0.8-1.4,1c-0.7,0.2-1.4,0.2-2.1,0.2H255V3.8z M264.9,13.1
			c-0.6-0.8-1.4-1.5-2.3-1.8l-0.2-0.1l0.2-0.1c0.7-0.4,1.3-1.1,1.7-1.8c0.4-0.8,0.6-1.7,0.6-2.6c0-1-0.2-1.9-0.7-2.7
			c-0.4-0.8-1.1-1.4-1.8-1.9c-1-0.4-2-0.6-3.1-0.6h-6.4v20.7h6.5c1.2,0.1,2.4-0.2,3.5-0.6c0.9-0.4,1.6-1.1,2-2
			c0.5-1,0.8-2.1,0.8-3.3C265.7,15.2,265.4,14.1,264.9,13.1"/>
		<rect x="296.3" y="-1.5" transform="matrix(0.7071 -0.7071 0.7071 0.7071 83.288 211.3608)" width="1" height="13.4"/>
		<rect x="309.6" y="11.8" transform="matrix(0.7071 -0.7071 0.7071 0.7071 77.7667 224.6983)" width="1" height="13.4"/>
		<rect x="303.4" y="4.6" transform="matrix(0.7071 -0.7071 0.7071 0.7071 87.2071 220.7886)" width="13.4" height="1"/>
		<rect x="290.1" y="18" transform="matrix(0.7069 -0.7074 0.7074 0.7069 73.9148 215.3423)" width="13.4" height="1"/>
	</g>
</g>
</svg>
