<?xml version="1.0" encoding="utf-8"?>
<!-- Generator: Adobe Illustrator 26.0.2, SVG Export Plug-In . SVG Version: 6.00 Build 0)  -->
<svg version="1.1" id="Layer_1" xmlns="http://www.w3.org/2000/svg" xmlns:xlink="http://www.w3.org/1999/xlink" x="0px" y="0px"
	 viewBox="0 0 362.5 28" style="enable-background:new 0 0 362.5 28;" xml:space="preserve">
<style type="text/css">
	.st0{fill-rule:evenodd;clip-rule:evenodd;}
</style>
<g id="Layer_2_00000011723838357613156570000000369485853651638187_">
	<g id="Layer_1-2">
		<path d="M225.6,13.7c0.1-2.2-1.6-4.1-3.8-4.2c-0.2,0-0.3,0-0.5,0c-2.4,0-4.4,1.8-4.6,4.2H225.6z M216.6,15.2
			c0.1,2.7,2.4,4.8,5.1,4.7c1.6-0.1,3.1-0.9,3.9-2.3l1.4,1.2c-1.3,1.8-3.4,2.8-5.6,2.8c-3.7,0.1-6.7-2.9-6.8-6.5c0-0.1,0-0.3,0-0.4
			c-0.2-3.7,2.7-6.8,6.4-6.9c0.1,0,0.2,0,0.3,0c4,0,6.3,3,6.3,6.6v0.8L216.6,15.2z"/>
		<polygon points="232.7,14.2 227.9,8.1 230.5,8.1 234.1,13 237.6,8.1 239.9,8.1 235.3,14.2 240.8,21.2 238.3,21.2 233.9,15.5 
			229.6,21.2 227.3,21.2 		"/>
		<path d="M251,11.2c-0.7-1.1-2-1.7-3.3-1.7c-3.1-0.1-4.9,2.2-4.9,5.2s1.9,5.3,4.9,5.2c1.3,0,2.6-0.6,3.3-1.7l1.5,1.1
			c-1.2,1.4-2.9,2.3-4.8,2.3c-3.6,0.2-6.7-2.5-7-6.1c0-0.3,0-0.5,0-0.8c-0.2-3.6,2.6-6.7,6.2-6.9c0.3,0,0.6,0,0.8,0
			c1.9,0,3.6,0.9,4.8,2.3L251,11.2z"/>
		<path d="M254.4,0h1.9v10.2h0.1c1-1.5,2.6-2.4,4.4-2.4c3.4,0,5,1.9,5,5.1v8.4h-1.9V14c0-2.9-0.8-4.5-3.6-4.5c-0.4,0-4,0.2-4,5.1
			v6.7h-1.9V0z"/>
		<path d="M275.7,14.7c-1.9,0-6.1,0.1-6.1,2.8c0,1.7,1.6,2.4,3.1,2.4c2.7,0,4-1.9,4-4.2v-1H275.7z M276.7,13.2v-0.3
			c0-2.3-1.1-3.4-3.4-3.4c-1.5,0-2.9,0.5-4,1.5l-1.1-1.3c1.5-1.4,3.5-2.1,5.6-1.9c2.6,0,4.8,1.5,4.8,4.7v5.9c0,1,0.1,2,0.2,3H277
			c-0.1-0.7-0.2-1.4-0.2-2.1h-0.1c-0.9,1.6-2.7,2.6-4.6,2.5c-2.3,0-4.5-1.3-4.5-3.9c0-4.3,5-4.6,8.2-4.6L276.7,13.2z"/>
		<path d="M283,8.1c0.1,0.7,0.1,1.4,0.1,2.1h0.1c1-1.5,2.6-2.4,4.4-2.4c3.4,0,5,1.9,5,5.1v8.3h-1.9V14c0-2.9-0.8-4.5-3.6-4.5
			c-0.4,0-4,0.2-4,5.1v6.7h-1.9V11c0-0.7-0.1-1.9-0.1-2.9H283z"/>
		<path d="M301.1,19.6c2.7,0.1,4.9-2,5-4.7c0-0.1,0-0.3,0-0.4c0.1-2.7-1.9-4.9-4.6-5.1c-0.1,0-0.3,0-0.4,0c-2.7,0.1-4.9,2.3-4.9,5.1
			C296.2,17.3,298.4,19.5,301.1,19.6 M295.9,23.9c1.2,1.5,3,2.4,5,2.4c3.8,0,5.1-2.3,5.1-5.2v-2.4l0,0c-1.1,1.6-3,2.6-4.9,2.5
			c-3.7,0.1-6.8-2.8-6.9-6.5c0-0.1,0-0.1,0-0.2c-0.1-3.6,2.7-6.7,6.4-6.8c0.1,0,0.2,0,0.3,0c2-0.1,3.9,0.9,5.1,2.5l0,0V8.1h1.9v13
			c0,2.9-1.2,6.9-7.1,6.9c-2.4,0.1-4.7-0.9-6.3-2.6L295.9,23.9z"/>
		<path d="M320.5,13.7c0.1-2.2-1.6-4.1-3.8-4.2c-0.2,0-0.3,0-0.5,0c-2.4,0-4.4,1.8-4.6,4.2H320.5z M311.6,15.2
			c0.1,2.7,2.4,4.8,5.1,4.7c1.6-0.1,3.1-0.9,3.9-2.3l1.4,1.2c-1.3,1.8-3.4,2.8-5.6,2.8c-3.7,0.1-6.7-2.9-6.8-6.5c0-0.1,0-0.3,0-0.4
			c-0.2-3.7,2.7-6.8,6.4-6.9c0.1,0,0.2,0,0.3,0c4,0,6.3,3,6.3,6.6v0.8L311.6,15.2z"/>
		<path d="M334.8,15.5c-1.2,0-4,0.1-4,1.9c0,1,1,1.4,1.9,1.4c1.6,0,3.1-0.8,3.1-2.5v-0.9L334.8,15.5z M335.8,19.6L335.8,19.6
			c-1,1.3-2.6,2.1-4.2,2c-2.5,0-4.7-1.4-4.7-4.1c0-4.6,5.5-4.6,8.9-4.6c0-1.3-1.1-2.4-2.5-2.4h-0.1c-1.3,0-2.5,0.6-3.3,1.6l-2.2-2.2
			c1.6-1.4,3.7-2.2,5.8-2.1c4.8,0,6,2.4,6,6.8v6.7h-3.8L335.8,19.6z"/>
		<path d="M341.2,8.1h4.1v2.1l0,0c0.6-1.5,2.2-2.5,3.8-2.4c0.5,0,0.9,0,1.4,0.1v3.7c-0.6-0.2-1.2-0.3-1.7-0.3
			c-3.1,0-3.5,1.8-3.5,4.4v5.5h-4.1L341.2,8.1z"/>
		<path d="M362.5,11.3H359v4.4c0,1.4,0.2,2.4,1.9,2.4c0.6,0,1.2-0.1,1.7-0.4v3.4c-0.9,0.3-1.9,0.4-2.9,0.4c-2.7,0-4.8-1.1-4.8-4
			v-6.3h-2.6V8.1h2.6V4.2h4.1v3.9h3.6L362.5,11.3z"/>
		<path d="M196.8,0h-14.6C181,0,180,1,180,2.2v14.6c0,0,0,2.2,2,2.2h2c2,0,2-2.2,2-2.2V6.1h10.8c0,0,2.2,0,2.2-2V2
			C198.9,0,196.7,0,196.8,0"/>
		<path d="M191,28h14.6c1.2,0,2.2-1,2.2-2.2l0,0V11.2c0,0,0-2.2-2-2.2h-2c-2,0-2,2.2-2,2.2v10.7H191c0,0-2.2,0-2.2,2v2
			C188.8,27.9,191,27.9,191,28"/>
	</g>
</g>
<g>
	<path d="M102.4,27.1C96.1,27.1,91,22,91,15.7s5.1-11.4,11.4-11.4s11.4,5.1,11.4,11.4C113.8,22,108.7,27.1,102.4,27.1z M102.4,9.2
		c-3.6,0-6.5,2.9-6.5,6.5s2.9,6.5,6.5,6.5s6.5-2.9,6.5-6.5S106,9.2,102.4,9.2z"/>
	<polygon points="22,4.3 22,9.2 34.9,9.2 21.8,22.2 21.8,27.1 41.8,27.1 41.8,22.2 28.7,22.2 41.8,9.2 41.8,4.3 	"/>
	<rect x="45" y="4.3" width="4.9" height="22.8"/>
	<path d="M70.3,11.9c-0.3-4.3-4-7.6-8.4-7.6H53v22.8h4.9v-6.4h4.2c2.3,0,4.5-0.9,6-2.6C69.7,16.5,70.5,14.2,70.3,11.9z M65,14.5
		c-0.6,0.9-1.6,1.5-2.7,1.5H58V9h4.2c1.5,0,2.8,1,3.3,2.3C65.8,12.4,65.6,13.6,65,14.5z"/>
	<path d="M89.5,11.9c-0.3-4.3-4-7.6-8.4-7.6h-8.9v22.8h4.9v-6.4h4.2c2.3,0,4.5-0.9,6-2.6C88.9,16.5,89.7,14.2,89.5,11.9z M84.2,14.5
		c-0.6,0.9-1.6,1.5-2.7,1.5h-4.3V9h4.2c1.5,0,2.8,1,3.3,2.3C85,12.4,84.8,13.6,84.2,14.5z"/>
	<path d="M113.1,7.3c-0.2-0.1-0.4-0.3-0.6-0.6c-0.1-0.2-0.2-0.5-0.2-0.8s0.1-0.6,0.2-0.8c0.1-0.2,0.3-0.4,0.6-0.6
		c0.2-0.1,0.5-0.2,0.8-0.2s0.6,0.1,0.8,0.2c0.2,0.1,0.4,0.3,0.6,0.6c0.1,0.2,0.2,0.5,0.2,0.8s-0.1,0.6-0.2,0.8
		c-0.1,0.2-0.3,0.4-0.6,0.6c-0.2,0.1-0.5,0.2-0.8,0.2C113.6,7.5,113.3,7.4,113.1,7.3z M114.4,6.9c0.2-0.1,0.3-0.2,0.4-0.4
		c0.1-0.2,0.2-0.4,0.2-0.6s-0.1-0.4-0.2-0.6s-0.2-0.3-0.4-0.4c-0.2-0.1-0.4-0.2-0.6-0.2s-0.4,0.1-0.6,0.2c-0.2,0.1-0.3,0.2-0.4,0.4
		c-0.1,0.2-0.2,0.4-0.2,0.6s0.1,0.4,0.2,0.6s0.2,0.3,0.4,0.4c0.2,0.1,0.4,0.2,0.6,0.2C114.1,7,114.3,7,114.4,6.9z"/>
	<path d="M113.2,5.1h0.7c0.2,0,0.4,0,0.5,0.1s0.2,0.2,0.2,0.4c0,0.1,0,0.2-0.1,0.3c-0.1,0.1-0.1,0.1-0.2,0.2l0.3,0.6h-0.5l-0.3-0.5
		h-0.1v0.5h-0.4L113.2,5.1L113.2,5.1z M113.9,5.8c0.1,0,0.1,0,0.2,0c0,0,0.1-0.1,0.1-0.2s0-0.1-0.1-0.1c0,0-0.1,0-0.2,0h-0.2v0.4
		h0.2V5.8z"/>
	<path class="st0" d="M10.9,27.1c6.8-2.5,8.9-13.9,1.1-20.5c-0.3,2.1-1.1,4-1.1,4s-2.2-8-9.1-9.5c1.8,2.5,1.5,6.1,1.5,6.1
		C3,11.1,0,14.4,0,18.1c-0.2,5.4,5.5,9,5.5,9v-2.6c0-2.2,1.2-3.9,2.7-3.9s2.7,1.8,2.7,3.9V27.1z"/>
</g>
</svg>
