<?xml version="1.0" encoding="utf-8"?>
<!-- Generator: Adobe Illustrator 26.0.2, SVG Export Plug-In . SVG Version: 6.00 Build 0)  -->
<svg version="1.1" id="Layer_1" xmlns="http://www.w3.org/2000/svg" xmlns:xlink="http://www.w3.org/1999/xlink" x="0px" y="0px"
	 viewBox="0 0 182.6 28" style="enable-background:new 0 0 182.6 28;" xml:space="preserve">
<g id="Layer_2_00000127015098552700958760000012565747349254495643_">
	<g id="Layer_1-2">
		<path d="M45.6,13.7c0.1-2.2-1.6-4.1-3.8-4.2c-0.2,0-0.3,0-0.5,0c-2.4,0-4.4,1.8-4.6,4.2H45.6z M36.7,15.2c0.1,2.7,2.5,4.8,5.2,4.6
			c1.6-0.1,3-0.9,3.8-2.2l1.4,1.2c-1.3,1.8-3.4,2.8-5.7,2.8c-3.7,0.1-6.7-2.9-6.8-6.5c0-0.1,0-0.2,0-0.4c-0.1-3.7,2.7-6.8,6.4-6.9
			c0.1,0,0.2,0,0.3,0c4,0,6.3,3,6.3,6.6v0.8L36.7,15.2z"/>
		<polygon points="52.8,14.2 48,8.1 50.5,8.1 54.2,13 57.7,8.1 60,8.1 55.4,14.2 60.9,21.2 58.4,21.2 54,15.5 49.7,21.2 47.4,21.2 
					"/>
		<path d="M71.1,11.2c-0.7-1.1-2-1.7-3.3-1.7c-3.1-0.1-4.9,2.2-4.9,5.2s1.9,5.3,4.9,5.2c1.3,0,2.6-0.6,3.3-1.7l1.5,1.1
			c-1.2,1.4-3,2.3-4.8,2.3c-3.6,0.2-6.7-2.5-7-6.1c0-0.3,0-0.5,0-0.8c-0.2-3.6,2.6-6.7,6.2-6.9c0.3,0,0.6,0,0.8,0
			c1.9,0,3.6,0.8,4.8,2.2L71.1,11.2z"/>
		<path d="M74.4,0h1.9v10.2h0.1c1-1.5,2.6-2.4,4.4-2.4c3.3,0,5,1.9,5,5.1v8.4h-1.9V14c0-2.9-0.8-4.5-3.6-4.5c-0.4,0-4,0.2-4,5.1v6.7
			h-1.8V0z"/>
		<path d="M95.8,14.7c-1.9,0-6.1,0.1-6.1,2.8c0,1.7,1.6,2.4,3.1,2.4c2.7,0,4-1.9,4-4.2v-1L95.8,14.7z M96.8,13.2v-0.3
			c0-2.3-1.1-3.4-3.4-3.4c-1.5,0-2.9,0.5-4,1.5l-1.2-1.3c1.5-1.4,3.5-2.1,5.6-1.9c2.6,0,4.8,1.5,4.8,4.7v5.9c0,1,0.1,2,0.2,3H97
			c-0.1-0.7-0.2-1.4-0.2-2.1l0,0c-0.9,1.6-2.7,2.6-4.6,2.5c-2.3,0-4.5-1.3-4.5-3.9c0-4.3,5-4.6,8.2-4.6L96.8,13.2z"/>
		<path d="M103,8.1c0.1,0.7,0.1,1.4,0.1,2.1h0.1c1-1.5,2.6-2.4,4.4-2.4c3.3,0,5,1.9,5,5.1v8.3h-1.9V14c0-2.9-0.8-4.5-3.6-4.5
			c-0.4,0-4,0.2-4,5.1v6.7h-1.9V11c0-0.7-0.1-1.9-0.1-2.9L103,8.1z"/>
		<path d="M121.2,19.6c2.7,0.1,4.9-2,5-4.7c0-0.1,0-0.3,0-0.4c0.1-2.7-1.9-4.9-4.6-5.1c-0.1,0-0.3,0-0.4,0c-2.7,0.1-4.9,2.3-4.9,5.1
			C116.3,17.3,118.4,19.5,121.2,19.6 M116,23.9c1.2,1.5,3,2.4,5,2.4c3.8,0,5.1-2.3,5.1-5.2v-2.4H126c-1.1,1.6-3,2.6-4.9,2.5
			c-3.7,0.1-6.8-2.8-6.9-6.5c0-0.1,0-0.1,0-0.2c-0.1-3.6,2.7-6.7,6.4-6.8c0.1,0,0.3,0,0.4,0c2,0,3.8,0.9,5,2.5h0.1V8.1h1.9v13
			c0,2.9-1.2,6.9-7,6.9c-2.4,0.1-4.7-0.9-6.3-2.6L116,23.9z"/>
		<path d="M140.6,13.7c0.1-2.2-1.6-4.1-3.8-4.2c-0.2,0-0.3,0-0.5,0c-2.4,0-4.4,1.8-4.6,4.2H140.6z M131.7,15.2
			c0.1,2.7,2.4,4.8,5.1,4.7c1.6-0.1,3.1-0.9,4-2.3l1.4,1.2c-1.3,1.8-3.4,2.8-5.6,2.8c-3.7,0.1-6.7-2.9-6.8-6.5c0-0.1,0-0.2,0-0.4
			c-0.1-3.7,2.7-6.8,6.4-6.9c0.1,0,0.2,0,0.3,0c4,0,6.3,3,6.3,6.6v0.8L131.7,15.2z"/>
		<path d="M154.8,15.5c-1.2,0-4,0.1-4,1.9c0,1,1,1.4,1.9,1.4c1.6,0,3.1-0.8,3.1-2.5v-0.9L154.8,15.5z M155.8,19.6L155.8,19.6
			c-1,1.3-2.6,2.1-4.2,2c-2.5,0-4.7-1.4-4.7-4.1c0-4.6,5.5-4.6,8.9-4.6c0-1.3-1.1-2.4-2.5-2.4c0,0-0.1,0-0.1,0
			c-1.3,0-2.5,0.6-3.3,1.6l-2.2-2.2c1.6-1.4,3.7-2.2,5.8-2.1c4.8,0,6,2.4,6,6.8v6.7h-3.8L155.8,19.6z"/>
		<path d="M161.3,8.1h4.1v2.1l0,0c0.6-1.5,2.2-2.5,3.8-2.4c0.5,0,0.9,0,1.4,0.1v3.7c-0.6-0.2-1.2-0.3-1.7-0.3
			c-3.1,0-3.5,1.8-3.5,4.4v5.5h-4.1L161.3,8.1z"/>
		<path d="M182.6,11.3H179v4.4c0,1.4,0.2,2.4,1.9,2.4c0.6,0,1.2-0.1,1.7-0.4v3.4c-0.9,0.3-1.9,0.4-2.9,0.4c-2.7,0-4.8-1.1-4.8-4
			v-6.3h-2.6V8.1h2.7V4.2h4v3.9h3.6L182.6,11.3z"/>
		<path d="M16.8,0H2.2C1,0,0,1,0,2.2c0,0,0,0,0,0v14.6c0,0,0,2.2,2,2.2h2c2,0,2-2.2,2-2.2V6.1h10.8c0,0,2.2,0,2.2-2V2
			C19,0,16.8,0,16.8,0"/>
		<path d="M11,28h14.6c1.2,0,2.2-1,2.2-2.2V11.2c0,0,0-2.2-2-2.2h-2c-2,0-2,2.2-2,2.2v10.7H11.1c0,0-2.2,0-2.2,2v2
			C8.8,27.9,11,27.9,11,28"/>
	</g>
</g>
</svg>
